<svg width="24" height="24" viewBox="0 0 24 24" fill="none" xmlns="http://www.w3.org/2000/svg">
<mask id="mask0_545_986" style="mask-type:alpha" maskUnits="userSpaceOnUse" x="0" y="0" width="24" height="24">
<rect width="24" height="24" fill="#D9D9D9"/>
</mask>
<g mask="url(#mask0_545_986)">
<path d="M4 13V15H20V13H4ZM4 2H20C20.55 2 21.0208 2.19583 21.4125 2.5875C21.8042 2.97917 22 3.45 22 4V15C22 15.55 21.8042 16.0208 21.4125 16.4125C21.0208 16.8042 20.55 17 20 17H16V22L12 20L8 22V17H4C3.45 17 2.97917 16.8042 2.5875 16.4125C2.19583 16.0208 2 15.55 2 15V4C2 3.45 2.19583 2.97917 2.5875 2.5875C2.97917 2.19583 3.45 2 4 2ZM4 10H20V4H4V10Z" fill="#1C1B1F"/>
</g>
</svg>
