<svg width="61" height="60" viewBox="0 0 61 60" fill="none" xmlns="http://www.w3.org/2000/svg">
<path d="M10.0156 33.3562C10.0156 31.0229 10.4823 28.8562 11.4156 26.8563C12.4156 24.7896 13.7823 23.0229 15.5156 21.5562C17.249 20.0896 19.249 18.9896 21.5156 18.2562C23.849 17.5229 26.3156 17.3229 28.9156 17.6563V23.6562C26.049 23.4562 23.6156 23.9562 21.6156 25.1562C19.6823 26.2896 18.449 27.9896 17.9156 30.2562C18.3156 30.0562 18.7156 29.9562 19.1156 29.9562C19.5156 29.8896 19.9156 29.8562 20.3156 29.8562C22.3156 29.8562 23.949 30.5229 25.2156 31.8562C26.549 33.1229 27.2156 34.6896 27.2156 36.5562C27.2156 38.6896 26.449 40.4229 24.9156 41.7562C23.449 43.0896 21.5156 43.7563 19.1156 43.7563C16.3156 43.7563 14.0823 42.8229 12.4156 40.9562C10.8156 39.0896 10.0156 36.5562 10.0156 33.3562ZM32.5156 33.3562C32.5156 31.0229 32.9823 28.8562 33.9156 26.8563C34.9156 24.7896 36.2823 23.0229 38.0156 21.5562C39.749 20.0896 41.749 18.9896 44.0156 18.2562C46.2823 17.5229 48.7156 17.3229 51.3156 17.6563V23.6562C48.449 23.4562 46.049 23.9562 44.1156 25.1562C42.1823 26.2896 40.949 27.9896 40.4156 30.2562C40.8156 30.0562 41.2156 29.9562 41.6156 29.9562C42.0156 29.8896 42.3823 29.8562 42.7156 29.8562C44.7823 29.8562 46.449 30.5229 47.7156 31.8562C48.9823 33.1229 49.6156 34.6896 49.6156 36.5562C49.6156 38.6896 48.8823 40.4229 47.4156 41.7562C45.949 43.0896 44.0156 43.7563 41.6156 43.7563C38.8156 43.7563 36.5823 42.8229 34.9156 40.9562C33.3156 39.0896 32.5156 36.5562 32.5156 33.3562Z" fill="#AC1F1F"/>
</svg>
